<svg xmlns="http://www.w3.org/2000/svg" viewBox="0 0 633.28 869.77"><defs><style>.cls-1{fill:#ef4277;}.cls-2{fill:#00afa0;}.cls-3{fill:#febe10;}.cls-4{fill:#009cd7;}</style></defs><g id="Layer_2" data-name="Layer 2"><g id="Layer_1-2" data-name="Layer 1"><path class="cls-1" d="M521.85,170.11c0,118.56-96.12,214.68-214.68,214.68-.61,0-.61-214.07-.61-214.68Z"/><path class="cls-2" d="M217.94,449A148.24,148.24,0,0,1,366.18,300.77c.42,0,.42,147.81.42,148.24Z"/><path class="cls-3" d="M153.76,184.79A184.79,184.79,0,0,1,338.55,0c.53,0,.53,184.26.53,184.79Z"/><circle class="cls-4" cx="295.54" cy="576.63" r="63.2"/><path d="M95.46,765.58c0,3.7-2.67,5.92-5.33,5.92s-4.29-1.63-6.81-4.29c-10.36-11-17.17-18.5-28-18.5H47.66c-5.48,0-7.41,2.22-7.41,7v22.49c0,3,1,4.15,4.74,4.15h7.7c8.43,0,8.88-11.25,15.24-11.25,3.4,0,5.48,2.07,5.48,6.81,0,3.55-.45,7.84-.45,11.39s.45,8.14.45,11.69c0,4.74-2.08,6.81-5.48,6.81-6.36,0-6.81-11.54-15.24-11.54H45c-3.7,0-4.74,1.18-4.74,4.14v21c0,10.65,10.37,8,10.37,14.65,0,2.66-1.93,5.18-6.52,5.18-4.29,0-8.28-.45-19.09-.45-10.51,0-14.5.45-18.5.45C1.92,841.21,0,838.69,0,836c0-6.66,8.58-4,8.58-14.65V754.19c0-10.66-8.58-8-8.58-14.65,0-2.67,1.92-5.18,6.51-5.18,4,0,7.7.44,17.91.44H63.64c7.25,0,8.14-3.85,12.58-3.85,3.7,0,6.21,2.22,8.73,7.85l6.51,14.8C94,759.22,95.46,761.88,95.46,765.58Z"/><path d="M170.79,776.53c0,5.33-2.81,12.14-6.66,20.43-1.48,3.25-3.55,5.18-6.37,5.18-2.66,0-4.58-2.22-5.92-4.59-3.25-5.77-6.21-9.47-10.8-9.47-4.88,0-11.69,5.18-11.69,20.86v13.33c0,10.21,10.06,7.1,10.06,14.05,0,2.37-1.77,4.89-6.21,4.89-4.15,0-8.14-.45-18.21-.45-9,0-12.57.45-16.28.45-4.43,0-6.21-2.37-6.21-4.89,0-6.36,8.14-3.84,8.14-14.05V794.74c0-9.62-9.18-6.07-9.18-13.32,0-3.85,4.59-6.07,17-11.4,11.4-4.88,13.47-5.33,15.25-5.33,4.44,0,5.62,3.56,5.62,8.44v10.36C133.2,773,143.56,764.1,154.8,764.1,164.42,764.1,170.79,769.87,170.79,776.53Z"/><path d="M264,828c0,5-7.7,13.91-22.94,13.91a20.38,20.38,0,0,1-17.32-9.33A43.74,43.74,0,0,1,196,842.54c-17,0-27.23-9.62-27.23-23.38s11.1-24.57,31.82-24.57a61.5,61.5,0,0,1,16.13,1.92l-.15-1.48c-1.33-9.62-7.1-14.5-14.5-14.5-6.52,0-11.4,1.92-15.54,3.7-2.67,1.18-5.18,2.52-7.11,2.52a4.66,4.66,0,0,1-4.44-4.89c0-3.7,3.7-7.4,6.37-9.47,6.66-5.18,16.42-8.73,29.89-8.73,18.06,0,30.93,7,33.3,24.57l3.26,23.82c1.18,8.73,4.58,10.81,13.17,12.43A3.55,3.55,0,0,1,264,828Zm-71.34-86.73c0-10.51,7.4-15.69,20.43-15.69,12.72,0,19.68,5,19.68,15.1,0,10.8-7,16.58-20.28,16.58S192.69,751.82,192.69,741.31ZM220.37,823l-2.22-15.83a31.91,31.91,0,0,0-7.4-.74c-7.11,0-12.73,2.66-12.73,9.47,0,7,4.89,10.8,10.95,10.8A21.25,21.25,0,0,0,220.37,823Zm-13.91-81.1c0,4.89,2.36,7.4,6.21,7.4,4.44,0,6.37-2.36,6.37-8.43,0-5-2.37-7.4-6.07-7.4C208.68,733.47,206.46,735.84,206.46,741.9Z"/><path d="M356.82,842.39c0,16.28-17.76,27.38-47.8,27.38-30.93,0-47.06-7.69-47.06-18.2,0-5.48,4-9.62,11.39-12.43-4.73-2.67-8-7-8-13.18s4.59-13.61,11.84-18.2c-8.58-4.14-13.17-10.36-13.17-18.2,0-14.06,15.09-26.94,44.55-26.94,1.77,0,3.55,0,5.18.15,1.18-14.95,11.83-26,19.24-26,3.84,0,8.13,2.08,14.94,8,2.52,2.22,4.29,4.73,4.29,7.1,0,2.81-1.62,5.18-5.32,5.33-11.1.29-20.58,1.33-22.5,7.1,15.39,3.4,23.38,11.84,23.38,22,0,13.77-14.35,26.2-44.25,26.2a78,78,0,0,1-15.09-1.33,8.1,8.1,0,0,0-1.93,3.4c0,2.37,3.26,3.4,10.51,3.85,13.77.74,23.24,1.33,34.78,2.07C344.83,821.38,356.82,827.89,356.82,842.39ZM329.89,852.6c0-2.66-2.37-4.58-8.14-5.32-10.07-1.34-23.09-2.67-35.82-4.15h-.15a10.39,10.39,0,0,0-2.81,6.51c0,7.11,11.4,9.33,26,9.33C324.41,859,329.89,856,329.89,852.6ZM291.7,786.75c0,9.91,7.4,14.94,14.66,14.94,8.14,0,13.61-5.62,13.61-13.17,0-9.91-7.4-14.95-14.65-14.95C297.18,773.57,291.7,779.2,291.7,786.75Z"/><path d="M441.33,770.17c0,6.22-7,4-11.54,15l-20.72,49c-1.93,4.44-3.26,8.14-15.25,8.14-11.54,0-13.32-3.1-15.54-8.14l-21-49c-4.89-11.4-11.4-8.73-11.4-15,0-3,2.52-4.73,5.63-4.73,3.84,0,9,.44,18.35.44,9,0,13.61-.44,18-.44,4.74,0,7,1.92,7,4.73,0,5.92-6.36,4.74-6.36,11.54,0,3,.88,5.63,2.51,9.77l10.07,26.64,10.21-26.64c1.77-4.73,2.66-7.4,2.66-10.06,0-5.77-6.66-5.33-6.66-11.25,0-2.81,2.07-4.73,6.81-4.73,3.11,0,6.66.44,10.65.44,3.7,0,8.29-.44,11-.44C439,765.44,441.33,767.36,441.33,770.17Z"/><path d="M442.66,836.32c0-6.36,8.14-3.84,8.14-14.05V794.74c0-9.62-9.17-6.07-9.17-13.32,0-3.85,4.59-6.07,17-11.4,11.39-4.88,13.47-5.33,15.24-5.33,4.44,0,5.62,3.56,5.62,8.44v49.14c0,10.21,8.29,7.69,8.29,14.05,0,2.37-1.77,4.89-6.21,4.89-3.7,0-7.4-.45-16.43-.45s-12.58.45-16.28.45C444.44,841.21,442.66,838.84,442.66,836.32Zm3.56-88.64c0-8.74,9.47-17.91,21.75-17.91,7.55,0,13.76,4.73,13.76,11.39,0,8.59-10.35,17.17-22.49,17.17C451,758.33,446.22,753.74,446.22,747.68Z"/><path d="M498.46,836.18l-5-11.1c-1.93-4.15-3.85-7.26-3.85-10.51,0-3.4,2.37-5,4.59-5s3.84,1.18,6.36,3.55c8.29,8,20,16.87,33.15,16.87,6.51,0,10.21-3,10.21-6.22,0-5.17-9.32-6.06-19.83-8.43-17.17-3.7-33.15-10.66-33.15-26.79,0-14.65,13.76-24.42,30.78-24.42,8.59,0,15.39,2.37,18.35,2.37,3.26,0,3.26-3,7.11-3s5.62,3,7.69,6.07l6.07,9.17c2.22,3.41,4.15,6.66,4.15,9.33a4.2,4.2,0,0,1-4,4.44c-2.52,0-4.14-1.78-6.51-3.7-8.73-7-19.54-12.58-28.42-12.58-4.58,0-8,1.92-8,5,0,4.88,8.29,5.92,18.65,8.44,17.46,4,34.19,9.47,34.19,26.49,0,17.31-17,26.19-37.15,26.19-10.51,0-16.28-2.37-19.54-2.37-4.29,0-4.58,4-8.58,4C502,844,500.09,839.88,498.46,836.18Z"/><path d="M633.28,825.23c0,2.81-2.07,6.06-4.14,8.13-5.18,5.18-12.58,9.48-24.86,9.48-13.32,0-24.13-8-24.13-17.61,0-3.11.59-14.51.59-24.72V779.2h-6.36c-3.7,0-6.36-2.22-6.36-5.48,0-3.55,2.22-5.32,5.92-7.55,9.91-5.91,15.24-10.21,21.16-18,4.88-6.51,6.66-9.47,9.92-9.47,2.81,0,4.44,1.77,4.44,6.36v20.87h17.75c2.82,0,4.44,1.33,4.44,4.59a37.93,37.93,0,0,1-.44,4.29c-.44,3-1.78,4.44-4.74,4.44h-17v32.56c0,11.69,3.55,14.35,7.84,14.35,1.78,0,3.55-.44,7-3.25,1-.89,2.52-2.22,4.59-2.22A4.3,4.3,0,0,1,633.28,825.23Z"/></g></g></svg>