<svg xmlns="http://www.w3.org/2000/svg" xmlns:xlink="http://www.w3.org/1999/xlink" viewBox="0 0 1067.21 439.68"><defs><style>.cls-1{fill:url(#radial-gradient);}.cls-2{fill:url(#radial-gradient-2);}.cls-3{fill:url(#radial-gradient-3);}.cls-4{fill:url(#radial-gradient-4);}.cls-5{font-size:170px;font-family:NewSpirit-Bold, New Spirit;font-weight:700;}.cls-6{letter-spacing:-0.04em;}.cls-7{letter-spacing:-0.02em;}.cls-8{letter-spacing:-0.05em;}.cls-9{letter-spacing:-0.02em;}.cls-10{letter-spacing:-0.06em;}</style><radialGradient id="radial-gradient" cx="931.64" cy="107.54" r="137.82" gradientUnits="userSpaceOnUse"><stop offset="0" stop-color="#f36f98"/><stop offset="0.45" stop-color="#f36d96"/><stop offset="0.65" stop-color="#f26591"/><stop offset="0.81" stop-color="#f15988"/><stop offset="0.94" stop-color="#ef477a"/><stop offset="0.97" stop-color="#ef4277"/></radialGradient><radialGradient id="radial-gradient-2" cx="965.13" cy="279.14" fx="973.2194649467584" r="87.85" gradientUnits="userSpaceOnUse"><stop offset="0" stop-color="#40c3b8"/><stop offset="0.32" stop-color="#3dc2b7"/><stop offset="0.54" stop-color="#34bfb4"/><stop offset="0.73" stop-color="#25baae"/><stop offset="0.91" stop-color="#0fb4a6"/><stop offset="1" stop-color="#00afa0"/></radialGradient><radialGradient id="radial-gradient-3" cx="951.71" cy="115.87" r="115.95" gradientUnits="userSpaceOnUse"><stop offset="0" stop-color="#fece4c"/><stop offset="0.35" stop-color="#fecd49"/><stop offset="0.57" stop-color="#fecb41"/><stop offset="0.75" stop-color="#fec732"/><stop offset="0.92" stop-color="#fec21e"/><stop offset="1" stop-color="#febe10"/></radialGradient><radialGradient id="radial-gradient-4" cx="924.53" cy="363.55" r="39.84" gradientUnits="userSpaceOnUse"><stop offset="0" stop-color="#2eaede"/><stop offset="0.36" stop-color="#2badde"/><stop offset="0.61" stop-color="#22a9dc"/><stop offset="0.83" stop-color="#13a3da"/><stop offset="1" stop-color="#009cd7"/></radialGradient></defs><g id="Layer_2" data-name="Layer 2"><g id="Layer_1-2" data-name="Layer 1"><path class="cls-1" d="M1067.21,107.25A135.34,135.34,0,0,1,931.86,242.59c-.39,0-.39-135-.39-135.34Z"/><path class="cls-2" d="M875.6,283.08a93.46,93.46,0,0,1,93.46-93.46c.27,0,.27,93.19.27,93.46Z"/><path class="cls-3" d="M835.14,116.5A116.5,116.5,0,0,1,951.64,0c.34,0,.34,116.17.34,116.5Z"/><circle class="cls-4" cx="924.53" cy="363.55" r="39.84"/><text class="cls-5" transform="translate(0 283.84)"><tspan class="cls-6">F</tspan><tspan class="cls-7" x="107.78" y="0">r</tspan><tspan x="199.75" y="0">å</tspan><tspan class="cls-8" x="309.23" y="0">g</tspan><tspan class="cls-9" x="410.21" y="0">v</tspan><tspan class="cls-8" x="515.09" y="0">i</tspan><tspan class="cls-10" x="567.28" y="0">s</tspan><tspan x="657.89" y="0">t</tspan></text></g></g></svg>