<svg xmlns="http://www.w3.org/2000/svg" viewBox="0 0 965.95 390.92"><defs><style>.cls-1{fill:#ef4277;}.cls-2{fill:#00afa0;}.cls-3{fill:#febe10;}.cls-4{fill:#009cd7;}.cls-5{font-size:170px;font-family:NewSpirit-Bold, New Spirit;font-weight:700;}.cls-6{letter-spacing:-0.05em;}.cls-7{letter-spacing:-0.03em;}.cls-8{letter-spacing:-0.01em;}.cls-9{letter-spacing:-0.06em;}.cls-10{letter-spacing:-0.02em;}.cls-11{letter-spacing:-0.03em;}.cls-12{letter-spacing:-0.04em;}</style></defs><g id="Layer_2" data-name="Layer 2"><g id="Layer_1-2" data-name="Layer 1"><path class="cls-1" d="M966,87.9A110.92,110.92,0,0,1,855,198.83c-.32,0-.32-110.61-.32-110.93Z"/><path class="cls-2" d="M808.91,232a76.59,76.59,0,0,1,76.6-76.6c.22,0,.22,76.38.22,76.6Z"/><path class="cls-3" d="M775.75,95.49A95.48,95.48,0,0,1,871.23,0c.28,0,.28,95.21.28,95.49Z"/><circle class="cls-4" cx="849.01" cy="297.97" r="32.66"/><text class="cls-5" transform="translate(0 235.08)"><tspan class="cls-6">F</tspan><tspan class="cls-7" x="106.08" y="0">r</tspan><tspan class="cls-8" x="196.35" y="0">å</tspan><tspan class="cls-9" x="304.13" y="0">g</tspan><tspan class="cls-10" x="403.41" y="0">v</tspan><tspan class="cls-11" x="508.29" y="0">i</tspan><tspan class="cls-12" x="563.88" y="0">s</tspan><tspan x="657.89" y="0">t</tspan></text></g></g></svg>