<svg xmlns="http://www.w3.org/2000/svg" xmlns:xlink="http://www.w3.org/1999/xlink" viewBox="0 0 960.01 278"><defs><style>.cls-1{fill:url(#radial-gradient);}.cls-2{fill:url(#radial-gradient-2);}.cls-3{fill:url(#radial-gradient-3);}.cls-4{fill:url(#radial-gradient-4);}</style><radialGradient id="radial-gradient" cx="866.58" cy="74.11" r="94.98" gradientUnits="userSpaceOnUse"><stop offset="0" stop-color="#f36f98"/><stop offset="0.45" stop-color="#f36d96"/><stop offset="0.65" stop-color="#f26591"/><stop offset="0.81" stop-color="#f15988"/><stop offset="0.94" stop-color="#ef477a"/><stop offset="0.97" stop-color="#ef4277"/></radialGradient><radialGradient id="radial-gradient-2" cx="889.66" cy="192.37" r="60.54" gradientUnits="userSpaceOnUse"><stop offset="0" stop-color="#40c3b8"/><stop offset="0.32" stop-color="#3dc2b7"/><stop offset="0.54" stop-color="#34bfb4"/><stop offset="0.73" stop-color="#25baae"/><stop offset="0.91" stop-color="#0fb4a6"/><stop offset="1" stop-color="#00afa0"/></radialGradient><radialGradient id="radial-gradient-3" cx="880.42" cy="79.85" r="79.91" gradientUnits="userSpaceOnUse"><stop offset="0" stop-color="#fece4c"/><stop offset="0.35" stop-color="#fecd49"/><stop offset="0.57" stop-color="#fecb41"/><stop offset="0.75" stop-color="#fec732"/><stop offset="0.92" stop-color="#fec21e"/><stop offset="1" stop-color="#febe10"/></radialGradient><radialGradient id="radial-gradient-4" cx="861.68" cy="250.54" r="27.46" gradientUnits="userSpaceOnUse"><stop offset="0" stop-color="#2eaede"/><stop offset="0.36" stop-color="#2badde"/><stop offset="0.61" stop-color="#22a9dc"/><stop offset="0.83" stop-color="#13a3da"/><stop offset="1" stop-color="#009cd7"/></radialGradient></defs><g id="Layer_2" data-name="Layer 2"><g id="Layer_1-2" data-name="Layer 1"><path class="cls-1" d="M960,73.91a93.28,93.28,0,0,1-93.28,93.28c-.26,0-.26-93-.26-93.28Z"/><path class="cls-2" d="M828,195.09a64.41,64.41,0,0,1,64.41-64.41c.19,0,.19,64.22.19,64.41Z"/><path class="cls-3" d="M800.08,80.29A80.29,80.29,0,0,1,880.37,0c.23,0,.23,80.06.23,80.29Z"/><circle class="cls-4" cx="861.68" cy="250.54" r="27.46"/><path d="M114.07,110.48h-1.53l-.34-4.59c-1.7-20.57-20.4-45.73-45.9-45.73h-9V120h6.63c11.9,0,25-9,25-24.82V92.46h2.21v61.37H88.91v-3.91c0-15.64-10.88-27.2-24.48-27.2H57.29V179c0,8.33,2.55,12.58,9.69,12.58H73.1v2.21H0v-2.21H7.31c7.48,0,11.56-2,11.56-12.58V71.72c0-9.18-2.72-11.56-9.86-11.56H1.53V58H114.07Z"/><path d="M186.32,137.51c-7.82,0-16.49-6.46-16.49-15.81,0-10.2,7.48-17,15.81-17,6.12,0,8.84,2.55,9.86,2.55a.91.91,0,0,0,.85-.85c0-2.72-4.93-7-12.07-7-7.31,0-18.53,5.61-18.53,24.65v60c0,5.44,2.21,7.65,4.93,7.65h6.46v2h-61v-2h5.78c4.93,0,8.67-2.72,8.67-7.31V111.84c0-4.59-2.38-7.82-6.29-7.82h-5.78v-2.21h45.39l.85,10.54c2-4.42,7.65-14.79,20.06-14.79,10.2,0,18.87,8.5,18.87,20.74S195.16,137.51,186.32,137.51Z"/><path d="M310.8,173.8c-1.23,16.89-4.48,22.52-22.5,22.52-21.93,0-25.33-18.52-25.84-18.52-.68,0-1.7,4.59-4.76,9-3.06,4.59-7,9-19.21,9-17.85,0-29.58-9.87-29.58-24.31,0-22.44,23.12-23.46,32.47-25.84s21.42-4.93,21.42-26.18c0-15.3-4.93-18.19-12.75-18.19s-16.32,4.42-16.32,7c0,.85.34,1,.68,1,.51,0,1.19-.17,1.87-.17,8.5,0,14.79,7.14,14.79,15.3,0,9.69-8,17.85-17.34,17.85a17.7,17.7,0,0,1-17.85-18.19c0-12.58,12.75-24.65,40.46-24.65,23.46,0,39.61,9.18,39.61,27.37v58.31c0,4.42,1.53,6.12,3.57,6.12,3.57,0,8.86-5.26,10.08-17.54Zm-49.19-37.48c-.34,0-2.72,3.06-6.29,5.78-3.06,2.38-11,5.44-11,28.22,0,19.38.68,21.08,4.93,21.08,5.27,0,12.92-13.6,12.92-25V137.17C262.12,136.66,262.12,136.32,261.61,136.32Z"/><path d="M380,102.66c14.11,4.59,24,14.45,24,26,0,15.64-18.7,28.56-41.65,28.56a59.87,59.87,0,0,1-18.7-3.06c-4.25.68-7.48,3.4-7.48,7,0,8.16,8.16,8.16,29.75,7.47,21.76-.5,48.79,1.37,48.79,28.74,0,20.56-14.62,33.14-54.4,33.14-33.32,0-48.79-7.48-48.79-20.05,0-8.16,9-14.45,18.36-16.33-9-2.88-14.28-8.66-14.28-19,0-11.89,11.73-19.71,24.31-22.43-11.56-5.1-19.21-13.94-19.21-24,0-15.81,18.7-28.56,41.65-28.56a71.49,71.49,0,0,1,10.54.85m-19.55,96.39a122.54,122.54,0,0,1-17.17-1.7C326.59,197,324,203,324,210.61c0,15.3,14.28,17.67,36.21,17.67,25,0,31.28-5.78,31.28-15.63C391.53,199.56,372.32,197.86,353.28,197.35Zm9.52-95c-7.31,0-10,4.76-10,26.69,0,21.76,2,25.67,10.54,25.67,8.33,0,9.35-5.1,9.35-26C372.66,107.93,371.3,102.32,362.8,102.32Z"/><path d="M515.29,104H512.4c-7,0-15.64,9-20.57,25.84l-19,63.92H447.63l-30.94-84.15c-1.36-3.74-2.89-5.61-6.46-5.61h-4.76v-2.38h60V104h-3.57c-3.23,0-5.1,1.36-5.1,3.74a4.31,4.31,0,0,0,.34,2l20.23,61L490,128.5a29.8,29.8,0,0,0,1.53-9.52c0-9.52-5.1-15-10.37-15h-4.93v-2.38h39.1Z"/><path d="M568.92,193.78H509.08v-2.21h5.1a7.73,7.73,0,0,0,8.16-8V111.5c0-4.59-2.38-7.48-7-7.48h-4.59l-.18-2.38h47.24l0,81.93c0,4.59,2,8,6.12,8h4.93Z"/><path d="M622.13,197.18c-15,0-25.33-7.48-33.83-7.48-7.31,0-9.18,3.74-9.69,5.09h-1.53V152h1.36c2.21,11.22,19.55,43.18,41.65,43.18,9,0,14.45-4.42,14.45-13.26,0-12.07-13.77-15.13-27.71-20.23-14.11-5.1-28.22-12.24-28.22-32.81,0-18.7,18.87-31.11,38.42-31.11,10.54,0,20.4,5.44,25.16,5.44s5.78-2.89,5.78-3.91h1.7v31.79h-1.19c-2.21-11.22-13.43-31.28-30.94-31.28-8.33,0-12.92,5.27-12.92,11.56,0,12.75,12.41,15.64,25.5,19.72,14.28,4.42,29.07,10.37,29.07,32.3C659.19,188.68,635.9,197.18,622.13,197.18Z"/><path d="M727.47,163c0,25.33-10,33.65-26,33.65-14.62,0-26-5.94-26-19.55V104.19H666.1v-2.55h5.78c17.17,0,37.57-14.79,37.57-33.49l2.21.17v33.32H727.3v2.55H711.66v77c0,6.46,1.87,7.31,4.25,7.31,4.59,0,9.52-8.84,9.52-25.5Z"/><circle cx="540.09" cy="75.2" r="17.25"/><path d="M256.82,66a9.26,9.26,0,1,1-9.25,9.25A9.26,9.26,0,0,1,256.82,66m0-8A17.26,17.26,0,1,0,274.08,75.2,17.25,17.25,0,0,0,256.82,58Z"/></g></g></svg>