<svg xmlns="http://www.w3.org/2000/svg" viewBox="0 0 646.56 881.76"><defs><style>.cls-1{fill:#ef4277;}.cls-2{fill:#00afa0;}.cls-3{fill:#febe10;}.cls-4{fill:#009cd7;}.cls-5{font-size:148px;font-family:NewSpirit-Bold, New Spirit;font-weight:700;}.cls-6{letter-spacing:-0.05em;}.cls-7{letter-spacing:-0.03em;}.cls-8{letter-spacing:-0.01em;}.cls-9{letter-spacing:-0.06em;}.cls-10{letter-spacing:-0.02em;}.cls-11{letter-spacing:-0.03em;}.cls-12{letter-spacing:-0.04em;}</style></defs><g id="Layer_2" data-name="Layer 2"><g id="Layer_1-2" data-name="Layer 1"><path class="cls-1" d="M526.59,170.11c0,118.56-96.12,214.68-214.68,214.68-.62,0-.62-214.07-.62-214.68Z"/><path class="cls-2" d="M222.67,449A148.24,148.24,0,0,1,370.91,300.77c.43,0,.43,147.81.43,148.24Z"/><path class="cls-3" d="M158.5,184.79C158.5,82.73,241.23,0,343.28,0c.53,0,.53,184.26.53,184.79Z"/><circle class="cls-4" cx="300.27" cy="576.63" r="63.2"/><text class="cls-5" transform="translate(0 840.76)"><tspan class="cls-6">F</tspan><tspan class="cls-7" x="92.35" y="0">r</tspan><tspan class="cls-8" x="170.94" y="0">å</tspan><tspan class="cls-9" x="264.77" y="0">g</tspan><tspan class="cls-10" x="351.2" y="0">v</tspan><tspan class="cls-11" x="442.52" y="0">i</tspan><tspan class="cls-12" x="490.91" y="0">s</tspan><tspan x="572.75" y="0">t</tspan></text></g></g></svg>