<svg xmlns="http://www.w3.org/2000/svg" xmlns:xlink="http://www.w3.org/1999/xlink" viewBox="0 0 192 333.75"><defs><style>.cls-1{fill:url(#linear-gradient);}.cls-2{fill:url(#linear-gradient-2);}.cls-3{fill:url(#linear-gradient-3);}.cls-4{fill:url(#radial-gradient);}</style><linearGradient id="linear-gradient" x1="97.53" y1="118.53" x2="171.12" y2="168.62" gradientUnits="userSpaceOnUse"><stop offset="1" stop-color="#f595a6"/><stop offset="1" stop-color="#f9c2cc"/></linearGradient><linearGradient id="linear-gradient-2" x1="45.89" y1="191.64" x2="119.32" y2="202.57" gradientUnits="userSpaceOnUse"><stop offset="1" stop-color="#00b7aa"/><stop offset="1" stop-color="#c9e0c3"/></linearGradient><linearGradient id="linear-gradient-3" x1="22.1" y1="26.48" x2="96.35" y2="88.27" gradientUnits="userSpaceOnUse"><stop offset="1" stop-color="#febe10"/><stop offset="1" stop-color="#ffe191"/></linearGradient><radialGradient id="radial-gradient" cx="73.95" cy="300.78" fx="125.8320892772976" fy="288.0548635343064" r="53.42" gradientUnits="userSpaceOnUse"><stop offset="0" stop-color="#a3d3e7"/><stop offset="0" stop-color="#0088c5"/></radialGradient></defs><g id="Layer_2" data-name="Layer 2"><g id="Layer_1-2" data-name="Layer 1"><path class="cls-1" d="M192,88.73a112,112,0,0,1-112,112c-.32,0-.32-111.66-.32-112Z"/><path class="cls-2" d="M33.47,234.21a77.33,77.33,0,0,1,77.33-77.33c.22,0,.22,77.11.22,77.33Z"/><path class="cls-3" d="M0,96.39A96.38,96.38,0,0,1,96.39,0c.27,0,.27,96.11.27,96.39Z"/><circle class="cls-4" cx="73.95" cy="300.78" r="32.97"/></g></g></svg>