<svg xmlns="http://www.w3.org/2000/svg" xmlns:xlink="http://www.w3.org/1999/xlink" viewBox="0 0 159.93 278"><defs><style>.cls-1{fill:url(#radial-gradient);}.cls-2{fill:url(#radial-gradient-2);}.cls-3{fill:url(#radial-gradient-3);}.cls-4{fill:url(#radial-gradient-4);}</style><radialGradient id="radial-gradient" cx="66.5" cy="74.11" r="94.98" gradientUnits="userSpaceOnUse"><stop offset="0" stop-color="#f36f98"/><stop offset="0.45" stop-color="#f36d96"/><stop offset="0.65" stop-color="#f26591"/><stop offset="0.81" stop-color="#f15988"/><stop offset="0.94" stop-color="#ef477a"/><stop offset="0.97" stop-color="#ef4277"/></radialGradient><radialGradient id="radial-gradient-2" cx="89.58" cy="192.37" r="60.54" gradientUnits="userSpaceOnUse"><stop offset="0" stop-color="#40c3b8"/><stop offset="0.32" stop-color="#3dc2b7"/><stop offset="0.54" stop-color="#34bfb4"/><stop offset="0.73" stop-color="#25baae"/><stop offset="0.91" stop-color="#0fb4a6"/><stop offset="1" stop-color="#00afa0"/></radialGradient><radialGradient id="radial-gradient-3" cx="80.34" cy="79.85" r="79.91" gradientUnits="userSpaceOnUse"><stop offset="0" stop-color="#fece4c"/><stop offset="0.35" stop-color="#fecd49"/><stop offset="0.57" stop-color="#fecb41"/><stop offset="0.75" stop-color="#fec732"/><stop offset="0.92" stop-color="#fec21e"/><stop offset="1" stop-color="#febe10"/></radialGradient><radialGradient id="radial-gradient-4" cx="61.6" cy="250.54" r="27.46" gradientUnits="userSpaceOnUse"><stop offset="0" stop-color="#2eaede"/><stop offset="0.36" stop-color="#2badde"/><stop offset="0.61" stop-color="#22a9dc"/><stop offset="0.83" stop-color="#13a3da"/><stop offset="1" stop-color="#009cd7"/></radialGradient></defs><g id="Layer_2" data-name="Layer 2"><g id="Layer_1-2" data-name="Layer 1"><path class="cls-1" d="M159.93,73.91a93.28,93.28,0,0,1-93.28,93.28c-.26,0-.26-93-.26-93.28Z"/><path class="cls-2" d="M27.88,195.09a64.41,64.41,0,0,1,64.41-64.41c.19,0,.19,64.22.19,64.41Z"/><path class="cls-3" d="M0,80.29A80.29,80.29,0,0,1,80.29,0c.23,0,.23,80.06.23,80.29Z"/><circle class="cls-4" cx="61.6" cy="250.54" r="27.46"/></g></g></svg>