<svg xmlns="http://www.w3.org/2000/svg" viewBox="0 0 916.53 580.08"><g id="Layer_2" data-name="Layer 2"><g id="Layer_1-2" data-name="Layer 1"><path d="M347.64,0V405.44h236V0ZM510.91,316.39H424.12V293.76h86.79ZM471.54,180.75a34.73,34.73,0,0,0,23.92-9.53l15.62,16.46a57.41,57.41,0,1,1,2.73-80.54L497.12,122.5a34.38,34.38,0,0,0-25.55-11.22,34.74,34.74,0,0,0,0,69.47Z"/><path d="M0,550.83c0-16.07,12.77-29.5,28.84-29.5a27.68,27.68,0,0,1,21.83,10.22l-6.26,5a20,20,0,0,0-15.49-7.33c-11.53,0-20.43,9.89-20.43,21.59s8.81,21.34,20.43,21.34a20,20,0,0,0,15.49-7.33l6.26,5a27.71,27.71,0,0,1-21.83,10.22A29,29,0,0,1,0,550.83Z"/><path d="M74,559.56V522.32h8.49v37.16c0,8.65,5.77,12.52,12.44,12.52s12.52-3.87,12.52-12.52V522.32h8.49v37.24c0,13-9.72,20.52-21,20.52S74,572.58,74,559.56Z"/><path d="M153.42,571.35h22.82v7.74H144.93V522.32h8.49Z"/><path d="M199.57,579.09V522.32h8.49v56.77Z"/><path d="M270.54,522.32H279v56.77h-8l-24.8-41.36v41.36h-8.49V522.32H246l24.55,41Z"/><path d="M344.76,579.09l-5.28-14.34H315.84l-5.28,14.34h-8.9l21.51-56.77h9.06l21.43,56.77Zm-26.2-21.75h18.2l-9.06-24.72Z"/><path d="M405.75,579.09l-14.59-21.18h-6.43v21.18h-8.48V522.32h21.67c12.44,0,17.47,9,17.47,18,0,8.16-4.95,16.73-14.42,17.63l14.91,21.18Zm-21-49V550.5h11.13c7.83,0,11-4.2,11-10.22s-3.54-10.22-9.06-10.22Z"/><path d="M474.74,522.32H484.8L463,553.05v26h-8.49v-26L432.8,522.32h10.05l15.83,22.74Z"/><path d="M542.3,550.83c0-16.07,12.78-29.5,28.84-29.5A27.7,27.7,0,0,1,593,531.55l-6.26,5a20,20,0,0,0-15.49-7.33c-11.54,0-20.44,9.89-20.44,21.59s8.82,21.34,20.44,21.34a20,20,0,0,0,15.49-7.33l6.26,5a27.73,27.73,0,0,1-21.84,10.22A29,29,0,0,1,542.3,550.83Z"/><path d="M654.73,579.09l-5.27-14.34H625.81l-5.27,14.34h-8.9l21.51-56.77h9.06l21.42,56.77Zm-26.2-21.75h18.21l-9.06-24.72Z"/><path d="M719,522.32h8.48v56.77h-8l-24.8-41.36v41.36h-8.49V522.32h8.24l24.56,41Z"/><path d="M784.44,522.32h8.73l-17,56.77h-7.91L751,522.32h8.73L772.08,565Z"/><path d="M849.7,579.09l-5.28-14.34H820.77l-5.27,14.34h-8.9l21.51-56.77h9.06l21.43,56.77Zm-26.21-21.75H841.7l-9.06-24.72Z"/><path d="M877.15,562.78h8.4c.17,4.86,4.7,9.55,11.79,9.55,6.75,0,10.71-4.28,10.71-9,0-5-4.53-7.41-9.15-8.65l-7.25-1.81c-12.11-3-14.09-10.22-14.09-14.92,0-10,8.82-16.64,18.87-16.64,10.22,0,18.21,6.43,18.21,16.81h-8.41c0-5.36-4.2-9.07-10.05-9.07-5.35,0-10.13,3.55-10.13,8.74,0,1.81.57,5.52,7.74,7.42l7.17,2c9.56,2.56,15.57,7.42,15.57,15.74,0,9.48-7.74,17.14-19.19,17.14C885.22,580.08,877.15,571.92,877.15,562.78Z"/></g></g></svg>