<?xml version="1.0" encoding="utf-8"?>
<!-- Generator: Adobe Illustrator 25.3.1, SVG Export Plug-In . SVG Version: 6.00 Build 0)  -->
<svg version="1.1" id="Layer_1" xmlns="http://www.w3.org/2000/svg" xmlns:xlink="http://www.w3.org/1999/xlink" x="0px" y="0px"
	 viewBox="0 0 1200 1200" style="enable-background:new 0 0 1200 1200;" xml:space="preserve">
<style type="text/css">
	.st0{fill:#B1F2FC;}
	.st1{fill:#FF7276;}
</style>
<rect class="st0" width="1200" height="1200"/>
<g>
	<g>
		<path class="st1" d="M635.7,584.4L675,440.4h89.3L672.5,730h-66.2l-42.2-141L522,730h-66.2L364,440.4h89.3l39.3,143.9L534,450
			h61.2L635.7,584.4z"/>
	</g>
	<g>
		<path class="st1" d="M232.3,525.2L110,491.8v-75.9l246,78v56.2L236.1,586L356,621.8v56.2l-246,78v-75.9l122.3-33.4l-114.2-35.1
			v-52L232.3,525.2z"/>
	</g>
	<g>
		<path class="st1" d="M784.5,441.7H1090v143.6c0,89-68.5,155.4-152.8,155.4c-84.7,0-152.8-66.3-152.8-155.4V441.7z M1011.4,533.4
			H863v39.3c0,47.1,29.2,76.4,74.2,76.4c45.4,0,74.6-29.2,74.2-76.4V533.4z"/>
	</g>
</g>
</svg>
