<?xml version="1.0" encoding="utf-8"?>
<!-- Generator: Adobe Illustrator 25.3.1, SVG Export Plug-In . SVG Version: 6.00 Build 0)  -->
<svg version="1.1" id="Layer_1" xmlns="http://www.w3.org/2000/svg" xmlns:xlink="http://www.w3.org/1999/xlink" x="0px" y="0px"
	 viewBox="0 0 1200 1200" style="enable-background:new 0 0 1200 1200;" xml:space="preserve">
<style type="text/css">
	.st0{fill:#B1F2FC;}
	.st1{fill:#FFFD98;}
</style>
<rect class="st0" width="1200" height="1200"/>
<g>
	<g>
		<path class="st1" d="M631.6,584.6l34.8-127.5h79.1l-81.3,256.4h-58.6l-37.4-124.9l-37.4,124.9h-58.6l-81.3-256.4h79.1l34.8,127.5
			l36.6-119.1h54.2L631.6,584.6z"/>
	</g>
	<g>
		<path class="st1" d="M274.3,532.2L166,502.6v-67.2l217.8,69.1v49.8L277.7,586l106.1,31.7v49.8L166,736.6v-67.2l108.3-29.6
			l-101.1-31.1v-46.1L274.3,532.2z"/>
	</g>
	<g>
		<path class="st1" d="M763.4,458.2H1034v127.2c0,78.9-60.7,137.6-135.3,137.6c-75,0-135.3-58.8-135.3-137.6V458.2z M964.4,539.4
			H833v34.8c0,41.8,25.9,67.6,65.7,67.6c40.2,0,66.1-25.9,65.7-67.6V539.4z"/>
	</g>
</g>
</svg>
