<?xml version="1.0" standalone="no"?>
<!DOCTYPE svg PUBLIC "-//W3C//DTD SVG 20010904//EN"
 "http://www.w3.org/TR/2001/REC-SVG-20010904/DTD/svg10.dtd">
<svg version="1.0" xmlns="http://www.w3.org/2000/svg"
 width="1200.000000pt" height="1200.000000pt" viewBox="0 0 1200.000000 1200.000000"
 preserveAspectRatio="xMidYMid meet">
<metadata>
Created by potrace 1.14, written by Peter Selinger 2001-2017
</metadata>
<g transform="translate(0.000000,1200.000000) scale(0.100000,-0.100000)"
fill="#000000" stroke="none">
<path d="M2350 9986 c0 -906 3 -1145 13 -1148 6 -3 835 -230 1840 -504 1225
-334 1822 -501 1810 -506 -10 -5 -781 -238 -1713 -519 -932 -281 -1698 -513
-1702 -515 -4 -3 -8 -358 -8 -789 l0 -784 53 -15 c372 -110 3388 -1044 3381
-1048 -5 -2 -834 -229 -1841 -504 l-1833 -499 0 -1148 c0 -1089 1 -1148 18
-1143 9 3 1342 426 2962 940 1620 513 3284 1041 3698 1172 l752 238 0 851 0
851 -1062 318 c-585 175 -1397 418 -1805 540 -407 121 -740 222 -738 224 1 1
812 245 1801 541 l1799 538 3 851 2 851 -202 65 c-112 36 -990 314 -1953 620
-962 305 -2539 804 -3502 1110 -964 306 -1757 556 -1763 556 -7 0 -10 -386
-10 -1144z"/>
</g>
</svg>
