<svg xmlns="http://www.w3.org/2000/svg" viewBox="0 0 2500 2500" version="1.1">
	<path d="M 104 1250 L 104 2396 729 2396 L 1354 2396 1354 1979 L 1354 1562 1224 1562 L 1094 1562 1094 1406 L 1094 1250 1223.960 1250 L 1353.920 1250 1354.301 1054.250 C 1354.699 849.904, 1354.590 855.011, 1359.139 826.500 C 1373.435 736.900, 1422.495 654.376, 1495.080 597.836 C 1514.737 582.524, 1532.706 571.193, 1555.326 559.846 C 1592.646 541.125, 1628.392 530.121, 1672.500 523.776 C 1687.221 521.658, 1690.212 521.612, 1833.250 521.268 L 1979 520.919 1979 676.908 L 1979 832.898 1892.250 833.243 C 1813.731 833.555, 1804.599 833.759, 1796 835.392 C 1732.610 847.427, 1684.763 893.581, 1669.774 957.151 L 1667.569 966.500 1667.261 1108.250 L 1666.954 1250 1815.477 1250 C 1897.165 1250, 1964.013 1250.338, 1964.029 1250.750 C 1964.045 1251.162, 1946.609 1321.362, 1925.283 1406.750 L 1886.507 1562 1776.753 1562 L 1667 1562 1667 1979 L 1667 2396 2031.500 2396 L 2396 2396 2396 1250 L 2396 104 1250 104 L 104 104 104 1250" stroke="none" fill="#000" fill-rule="evenodd"></path>
</svg>