<svg xmlns="http://www.w3.org/2000/svg" viewBox="0 0 2500 2500" version="1.1">
	<path d="M 1190.500 135.078 C 1116.608 138.929, 1042.292 149.966, 971.500 167.603 C 649.535 247.818, 376.946 465.467, 227.062 762 C 132.774 948.541, 91.286 1158.769, 107.566 1367.500 C 119.324 1518.236, 160.664 1664.188, 229.928 1799.500 C 359.488 2052.605, 578.994 2249.006, 843.500 2348.488 C 879.602 2362.067, 889.388 2364.988, 901 2365.653 C 919.292 2366.701, 932.327 2363.462, 943.272 2355.150 C 950.690 2349.516, 957.130 2340.393, 960.149 2331.240 C 962.305 2324.704, 962.394 2322.742, 963.094 2266.500 C 963.491 2234.600, 963.561 2186.635, 963.249 2159.912 L 962.682 2111.324 954.091 2113.082 C 865.975 2131.109, 785.633 2127.557, 722.366 2102.839 C 653.975 2076.118, 599.252 2020.770, 577.836 1956.655 C 555.753 1890.547, 516.330 1837.317, 461.584 1799.690 C 431.483 1779.002, 417.123 1766.336, 411.229 1755.279 C 402.845 1739.547, 411.186 1730.117, 437.553 1725.519 C 454.835 1722.505, 471.539 1724.259, 495.918 1731.647 C 519.519 1738.799, 541.155 1749.058, 561.217 1762.607 C 575.566 1772.298, 586.182 1781.329, 600.016 1795.611 C 614.145 1810.197, 623.948 1823.216, 636.155 1843.607 C 657.833 1879.817, 681.717 1905.547, 712.985 1926.375 C 781.288 1971.872, 865.727 1980.358, 941.500 1949.340 C 947.550 1946.864, 955.966 1943.035, 960.202 1940.832 C 967.865 1936.847, 967.906 1936.804, 968.515 1932.164 C 975.676 1877.582, 995.600 1833.730, 1031.391 1793.781 C 1039.364 1784.882, 1039.904 1784.022, 1037.799 1783.584 C 1036.534 1783.320, 1026.275 1781.917, 1015 1780.465 C 889.102 1764.253, 788.325 1729.546, 713.500 1676.631 C 684.962 1656.450, 650.479 1624.142, 629.576 1598 C 617.229 1582.559, 599.110 1555.645, 590.153 1539.444 C 552.555 1471.431, 530.257 1390.725, 522.479 1294.500 C 520.310 1267.666, 519.079 1214.728, 520.103 1192.332 C 522.985 1129.340, 538.135 1070.697, 565.916 1015 C 583.125 980.498, 603.388 949.960, 626.960 923 C 632.009 917.225, 636.365 911.982, 636.639 911.350 C 636.913 910.717, 635.309 904.480, 633.074 897.489 C 625.333 873.275, 619.859 847.657, 616.302 819 C 613.782 798.689, 613.805 748.704, 616.345 728 C 621.051 689.641, 630.916 651.037, 644.288 618.658 C 647.407 611.105, 648.951 608.554, 650.926 607.688 C 652.577 606.964, 661.212 606.561, 675 606.565 C 692.767 606.569, 698.757 606.960, 709.500 608.821 C 778.292 620.733, 860.483 657.871, 951.771 718.290 L 963.041 725.749 980.271 721.380 C 1108.290 688.910, 1236.085 679.695, 1366 693.566 C 1417.062 699.018, 1477.541 710.174, 1524.852 722.868 L 1536.204 725.914 1544.852 720.105 C 1602.428 681.427, 1666.225 647.775, 1719.266 628.102 C 1747.402 617.666, 1780.853 609.384, 1804.866 606.908 C 1815.745 605.786, 1842.401 606.173, 1848.022 607.535 C 1850.815 608.212, 1851.626 609.906, 1860.063 632.698 C 1882.465 693.213, 1890.220 761.777, 1881.926 826 C 1878.644 851.410, 1872.629 878.140, 1864.895 901.685 L 1861.878 910.870 1871.208 921.685 C 1927.159 986.545, 1962.772 1064.289, 1974.907 1148.059 C 1978.511 1172.939, 1979.368 1187.573, 1979.230 1221.872 C 1978.879 1308.890, 1969.165 1380.442, 1948.868 1445.500 C 1892.404 1626.491, 1760.998 1730.953, 1539.499 1770.931 C 1520.325 1774.392, 1488.083 1779.187, 1471.287 1781.076 C 1465.119 1781.769, 1459.526 1782.675, 1458.857 1783.088 C 1458.030 1783.599, 1460.105 1786.458, 1465.341 1792.025 C 1486.489 1814.505, 1507.172 1848.129, 1518.428 1878.327 C 1526.601 1900.256, 1533.118 1928.265, 1534.593 1947.807 C 1534.977 1952.889, 1535.343 2039.048, 1535.408 2139.273 C 1535.537 2338.700, 1535.109 2325.006, 1541.648 2338.781 C 1547.985 2352.128, 1561.380 2362.195, 1576.434 2364.924 C 1584.651 2366.414, 1601.208 2366.240, 1609 2364.582 C 1623.054 2361.592, 1680.485 2339.721, 1717.354 2323.319 C 1824.420 2275.686, 1924.886 2210.693, 2014 2131.416 C 2032.781 2114.708, 2073.304 2074.755, 2091.507 2055 C 2190.797 1947.244, 2267.535 1823.563, 2320.455 1686 C 2329.050 1663.655, 2344.414 1617.714, 2351.043 1594.529 C 2393.794 1445.026, 2405.777 1292.672, 2386.910 1138.500 C 2359.621 915.502, 2267.126 705.354, 2121.064 534.500 C 2094.508 503.437, 2053.515 460.955, 2024.977 434.923 C 1853.515 278.519, 1644.539 179.157, 1416.500 145.611 C 1382.984 140.680, 1345.186 137.029, 1307 135.032 C 1284.857 133.875, 1213.053 133.903, 1190.500 135.078" stroke="none" fill="#000" fill-rule="evenodd"></path>
</svg>