<svg xmlns="http://www.w3.org/2000/svg" viewBox="0 0 2500 2500" version="1.1">
	<path d="M 751 78.654 C 715.999 80.573, 689.738 83.429, 660.169 88.531 C 442.125 126.152, 253.516 266.176, 153.076 465 C 111.426 547.447, 87.861 632.653, 79.786 730 C 77.897 752.768, 77.897 1747.232, 79.786 1770 C 87.731 1865.782, 110.058 1947.750, 150.470 2029.500 C 165.010 2058.915, 176.639 2079.129, 194.479 2106 C 222.870 2148.763, 248.982 2180.786, 284.098 2215.902 C 319.214 2251.018, 351.237 2277.130, 394 2305.521 C 498.875 2375.148, 616.802 2413.940, 745 2420.983 C 770.452 2422.381, 1729.548 2422.381, 1755 2420.983 C 1810.853 2417.914, 1862.122 2409.359, 1913.965 2394.456 C 2059.808 2352.530, 2189.674 2262.782, 2281.441 2140.500 C 2365.601 2028.354, 2413.188 1896.890, 2420.983 1755 C 2422.381 1729.548, 2422.381 770.452, 2420.983 745 C 2417.914 689.147, 2409.359 637.878, 2394.456 586.035 C 2352.523 440.165, 2263.123 310.795, 2140.500 218.534 C 2133.350 213.154, 2117.825 202.330, 2106 194.479 C 2040.579 151.046, 1969.238 119.325, 1893.500 99.995 C 1854.806 90.119, 1823.722 84.935, 1772.500 79.816 C 1763.365 78.903, 1640.631 78.585, 1258.500 78.484 C 982.400 78.412, 754.025 78.488, 751 78.654 M 738.500 236.145 C 623.366 245.204, 513.118 290.964, 425.500 366.061 C 410.086 379.273, 379.273 410.086, 366.061 425.500 C 290.226 513.980, 244.999 623.697, 236.029 740.950 C 234.602 759.602, 234.602 1740.398, 236.029 1759.050 C 244.881 1874.759, 287.605 1979.920, 362.360 2070 C 377.180 2087.858, 411.051 2121.862, 428.500 2136.399 C 511.547 2205.589, 607.383 2247.775, 711.500 2260.972 C 748.479 2265.660, 729.509 2265.500, 1250 2265.500 C 1770.491 2265.500, 1751.521 2265.660, 1788.500 2260.972 C 1881.650 2249.165, 1970.363 2213.183, 2046.500 2156.328 C 2085.549 2127.169, 2127.169 2085.549, 2156.328 2046.500 C 2213.183 1970.363, 2249.165 1881.650, 2260.972 1788.500 C 2265.660 1751.521, 2265.500 1770.491, 2265.500 1250 C 2265.500 729.509, 2265.660 748.479, 2260.972 711.500 C 2249.165 618.350, 2213.183 529.637, 2156.328 453.500 C 2127.169 414.451, 2085.549 372.831, 2046.500 343.672 C 1962.254 280.762, 1864.302 244.081, 1759.050 236.029 C 1742.339 234.751, 754.795 234.863, 738.500 236.145 M 1881.635 522.035 C 1855.114 526.203, 1827.752 540.080, 1808.916 558.916 C 1793.297 574.535, 1780.546 596.816, 1774.817 618.500 C 1771.777 630.007, 1771.645 631.322, 1771.590 650.500 C 1771.537 669.076, 1771.727 671.269, 1774.260 681.305 C 1785.491 725.792, 1817.890 760.928, 1860.504 774.834 C 1885.763 783.076, 1916.103 783.120, 1941.142 774.949 C 1980.811 762.005, 2012.005 730.811, 2024.949 691.142 C 2033.120 666.103, 2033.076 635.763, 2024.834 610.504 C 2010.994 568.092, 1975.668 535.396, 1931.828 524.421 C 1923.240 522.272, 1918.636 521.775, 1904.500 521.475 C 1895.150 521.276, 1884.861 521.528, 1881.635 522.035 M 1218 651.627 C 1090.734 659.150, 974.004 703.778, 875.374 782.619 C 755.980 878.058, 676.769 1017.604, 656.606 1168.022 C 652.299 1200.153, 651.517 1212.757, 651.517 1250 C 651.517 1287.243, 652.299 1299.847, 656.606 1331.978 C 680.389 1509.405, 785.004 1668.387, 940 1762.651 C 1129.273 1877.760, 1370.727 1877.760, 1560 1762.651 C 1710.219 1671.293, 1813.110 1519.420, 1840.937 1347.974 C 1872.200 1155.355, 1810.642 963.618, 1673.512 826.488 C 1574.275 727.251, 1447.891 667.752, 1306 653.470 C 1291.166 651.977, 1232.770 650.754, 1218 651.627 M 1227.500 808.078 C 1141.214 812.253, 1055.858 842.840, 986.500 894.442 C 945.100 925.244, 906.487 966.303, 878.767 1009 C 778.434 1163.546, 784.725 1366.029, 894.442 1513.500 C 917.170 1544.048, 948.478 1576.140, 978.004 1599.153 C 1103.969 1697.335, 1274.780 1719.880, 1422 1657.755 C 1527.999 1613.024, 1613.024 1527.999, 1657.755 1422 C 1719.880 1274.780, 1697.335 1103.969, 1599.153 978.004 C 1582.579 956.739, 1554.510 927.683, 1534 910.558 C 1467.844 855.323, 1388.211 821.001, 1301.844 810.502 C 1290.112 809.075, 1253.361 806.863, 1246.500 807.170 C 1244.850 807.244, 1236.300 807.653, 1227.500 808.078" stroke="none" fill="#000" fill-rule="evenodd"></path>
</svg>