<svg xmlns="http://www.w3.org/2000/svg" viewBox="0 0 2500 2500" version="1.1">
	<path d="M 341 105.008 C 278.622 111.452, 223.666 137.290, 180.478 180.478 C 129.255 231.700, 101.557 301.921, 104.341 373.500 C 105.829 411.772, 114.286 445.374, 131.017 479.500 C 156.412 531.298, 197.560 572.450, 249.500 597.996 C 268.599 607.389, 280.700 611.963, 298.357 616.461 C 362.484 632.799, 425.832 625.764, 484.212 595.821 C 570.301 551.665, 625 461.793, 625 364.500 C 625 342.055, 622.335 321.412, 616.461 298.357 C 611.963 280.700, 607.389 268.599, 597.996 249.500 C 572.446 197.554, 531.412 156.529, 479.500 131.031 C 454.315 118.661, 430.004 111.028, 402.568 106.877 C 387.637 104.618, 354.507 103.612, 341 105.008 M 104 1614.500 L 104 2396 364.500 2396 L 625 2396 625 1614.500 L 625 833 364.500 833 L 104 833 104 1614.500 M 833 1614.500 L 833 2396 1067.500 2396 L 1302 2396 1302 1924.603 L 1302 1453.207 1312.868 1436.853 C 1345.963 1387.054, 1383.513 1346.493, 1425.810 1314.854 C 1487.104 1269.005, 1561.214 1246.032, 1632.327 1250.837 C 1669.130 1253.323, 1694.906 1259.930, 1724.500 1274.463 C 1748.113 1286.059, 1763.166 1296.807, 1782.354 1315.772 C 1830.541 1363.398, 1861.208 1433.233, 1872.698 1521.500 C 1874.260 1533.503, 1874.415 1567.544, 1874.711 1965.250 L 1875.031 2396 2135.516 2396 L 2396 2396 2395.993 1968.750 C 2395.989 1696.565, 2395.621 1533.515, 2394.977 1519.500 C 2386.237 1329.008, 2330.497 1155.350, 2239.303 1034.500 C 2222.267 1011.925, 2209.417 997.224, 2188.591 976.484 C 2104.619 892.861, 2003.365 847.143, 1876 835.343 C 1841.310 832.129, 1775.465 833.102, 1726 837.561 C 1574.266 851.236, 1448.646 898.658, 1358.439 976.316 C 1344.898 987.973, 1320.012 1013.411, 1310 1025.828 L 1302.500 1035.130 1302.245 934.065 L 1301.990 833 1067.495 833 L 833 833 833 1614.500" stroke="none" fill="#000" fill-rule="evenodd"></path>
</svg>